<?xml version="1.0" encoding="utf-8"?>

<!DOCTYPE svg PUBLIC "-//W3C//DTD SVG 1.1//EN" "http://www.w3.org/Graphics/SVG/1.1/DTD/svg11.dtd">
<!-- Uploaded to: SVG Repo, www.svgrepo.com, Generator: SVG Repo Mixer Tools -->
<svg height="800px" width="800px" version="1.1" id="_x32_" xmlns="http://www.w3.org/2000/svg" xmlns:xlink="http://www.w3.org/1999/xlink" 
	 viewBox="0 0 512 512"  xml:space="preserve">
<style type="text/css">
	.st0{fill:#111827;}
</style>
<g>
	<path class="st0" d="M158.145,266.731c11.802,0,21.352-13.543,21.352-30.256c0-16.702-9.55-30.245-21.352-30.245
		c-11.781,0-21.352,13.543-21.352,30.245C136.793,253.188,146.364,266.731,158.145,266.731z"/>
	<path class="st0" d="M353.878,266.731c11.781,0,21.352-13.543,21.352-30.256c0-16.702-9.571-30.245-21.352-30.245
		c-11.802,0-21.352,13.543-21.352,30.245C332.526,253.188,342.076,266.731,353.878,266.731z"/>
	<path class="st0" d="M426.806,131.499c0,0-42.704-92.518-64.056-88.963c-21.352,3.555-67.622,64.056-67.622,64.056H255.99h-39.138
		c0,0-46.27-60.501-67.622-64.056c-21.352-3.555-64.056,88.963-64.056,88.963s-131.656,96.084-67.6,234.872
		C63.823,466.593,199.066,469.564,255.99,469.564c56.946,0,192.168-2.971,238.437-103.194
		C558.484,227.582,426.806,131.499,426.806,131.499z M372.102,87.012l16.014,40.035l-40.035-8.007L372.102,87.012z M353.878,184.879
		c28.482,0,51.586,23.104,51.586,51.597c0,28.504-23.104,51.608-51.586,51.608c-28.504,0-51.608-23.104-51.608-51.608
		C302.271,207.982,325.375,184.879,353.878,184.879z M139.9,87.012l24.021,32.028l-40.035,8.007L139.9,87.012z M158.145,184.879
		c28.504,0,51.608,23.104,51.608,51.597c0,28.504-23.104,51.608-51.608,51.608c-28.504,0-51.608-23.104-51.608-51.608
		C106.537,207.982,129.641,184.879,158.145,184.879z M55.42,382.728l-2.043-19.099l113.828-12.157l2.043,19.11L55.42,382.728z
		 M172.168,335.062l-116.644-9.186l1.501-19.162l116.644,9.186L172.168,335.062z M329.055,400.098
		c-10.082,2.418-19.048,3.555-27.066,3.555c-10.634,0.011-19.683-2.032-27.138-5.786c-7.454-3.754-13.157-9.216-17.139-15.274
		c-0.658-1.011-1.032-2.074-1.606-3.107c-4.087,7.288-10.218,14.002-18.964,18.381c-7.454,3.754-16.504,5.786-27.128,5.786
		c-8.028-0.01-16.984-1.137-27.076-3.545c-4.87-1.167-7.882-6.067-6.714-10.937c1.167-4.879,6.067-7.892,10.946-6.724
		c8.966,2.158,16.546,3.054,22.844,3.054c8.361,0,14.429-1.564,18.954-3.848c4.525-2.293,7.673-5.327,10.165-9.06
		c4.974-7.381,6.746-18.151,6.694-27.639c0.011-5.4-0.511-10.134-1.022-13.626l-18.11-16.39c-3.712-3.357-4.973-8.653-3.17-13.324
		c1.804-4.671,6.287-7.757,11.291-7.757h42.36c4.9,0,9.31,2.951,11.187,7.475c1.866,4.514,0.834,9.727-2.627,13.188l-18.809,18.809
		c-0.406,3.253-0.771,7.163-0.771,11.604c-0.021,7.089,0.928,14.982,3.544,21.54c2.68,6.61,6.59,11.74,13.325,15.179
		c4.524,2.284,10.592,3.848,18.964,3.848c6.298,0,13.867-0.897,22.854-3.045c4.868-1.167,9.769,1.835,10.937,6.714
		C336.937,394.04,333.934,398.93,329.055,400.098z M338.333,315.9l116.623-9.186l1.501,19.162l-116.623,9.186L338.333,315.9z
		 M456.582,382.728l-113.828-12.146l2.044-19.11l113.828,12.157L456.582,382.728z"/>
</g>
</svg>