<?xml version="1.0"?>
<svg version="1.1" id="Layer_1" xmlns="http://www.w3.org/2000/svg" x="0" y="0" viewBox="0 0 100 100" xml:space="preserve"><path d="M42.7 20.6L11.5 69.7c-1.8 2.7-2 6.1-.5 9 1.5 2.9 4.5 4.6 7.7 4.6H50V16.7c-2.9 0-5.6 1.4-7.3 3.9z" fill="#c33837"/><path d="M89 78.7c1.5-2.9 1.4-6.3-.4-9L57.2 20.6c-1.6-2.4-4.3-3.9-7.2-3.9v66.6h31.3c3.2 0 6.1-1.8 7.7-4.6z" fill="#e15c64"/><path fill="#f4e6c8" d="M64.5 50.3l-5.8-5.8-8.7 8.7-8.7-8.7-5.8 5.8 8.7 8.7-8.7 8.7 5.8 5.8 8.7-8.7 8.7 8.7 5.8-5.8-8.7-8.7z"/><metadata xmlns:d="https://loading.io/stock/"><d:name>error</d:name><d:tags>fail,disable,exception,errant,bad,break,stop,error,web application</d:tags><d:license>by</d:license><d:slug>4grrdv</d:slug></metadata></svg>